<svg xmlns="http://www.w3.org/2000/svg" xmlns:xlink="http://www.w3.org/1999/xlink" width="568" height="549" viewBox="0 0 568 549">
  <defs>
    <clipPath id="clip-path">
      <rect id="Rectangle_395" data-name="Rectangle 395" width="568" height="549" transform="translate(829 138)" fill="#fff" stroke="#707070" stroke-width="1"/>
    </clipPath>
  </defs>
  <g id="Mask_Group_3" data-name="Mask Group 3" transform="translate(-829 -138)" clip-path="url(#clip-path)">
    <g id="undraw_software_engineer_lvl5_1_" data-name="undraw_software_engineer_lvl5 (1)" transform="translate(829 213.937)">
      <rect id="Rectangle_396" data-name="Rectangle 396" width="40.579" height="14.713" transform="translate(346.188 25.067)" fill="#3bbedb" opacity="0.3"/>
      <rect id="Rectangle_397" data-name="Rectangle 397" width="40.579" height="14.713" transform="translate(413.634)" fill="#3bbedb" opacity="0.3"/>
      <rect id="Rectangle_398" data-name="Rectangle 398" width="40.579" height="14.713" transform="translate(416.432 45.502)" fill="#3bbedb" opacity="0.3"/>
      <rect id="Rectangle_399" data-name="Rectangle 399" width="40.579" height="14.713" transform="translate(286.578 62.395)" fill="#3bbedb" opacity="0.3"/>
      <rect id="Rectangle_400" data-name="Rectangle 400" width="40.579" height="14.713" transform="translate(273.705 122.883)" fill="#3bbedb" opacity="0.3"/>
      <rect id="Rectangle_401" data-name="Rectangle 401" width="40.579" height="14.713" transform="translate(334.993 121.52)" fill="#3bbedb" opacity="0.3"/>
      <path id="Path_269" data-name="Path 269" d="M403.42,7.264,376.553,32.083l29.665,20.776" transform="translate(10.214)" fill="none" stroke="#3f3d56" stroke-miterlimit="10" stroke-width="0.489"/>
      <line id="Line_21" data-name="Line 21" x1="39.32" y2="30.312" transform="translate(306.868 32.083)" fill="none" stroke="#3f3d56" stroke-miterlimit="10" stroke-width="0.489"/>
      <path id="Path_270" data-name="Path 270" d="M286.231,122.871,299.1,77.108l48.416,44.412" transform="translate(7.764)" fill="none" stroke="#3f3d56" stroke-miterlimit="10" stroke-width="0.489"/>
      <rect id="Rectangle_402" data-name="Rectangle 402" width="40.579" height="14.713" transform="translate(72.483 40.224)" fill="#3bbedb" opacity="0.3"/>
      <rect id="Rectangle_403" data-name="Rectangle 403" width="40.579" height="14.713" transform="translate(139.929 15.157)" fill="#3bbedb" opacity="0.3"/>
      <rect id="Rectangle_404" data-name="Rectangle 404" width="40.579" height="14.713" transform="translate(142.727 60.659)" fill="#3bbedb" opacity="0.3"/>
      <rect id="Rectangle_405" data-name="Rectangle 405" width="40.579" height="14.713" transform="translate(12.873 77.552)" fill="#3bbedb" opacity="0.3"/>
      <rect id="Rectangle_406" data-name="Rectangle 406" width="40.579" height="14.713" transform="translate(0 138.04)" fill="#3bbedb" opacity="0.3"/>
      <rect id="Rectangle_407" data-name="Rectangle 407" width="40.579" height="14.713" transform="translate(61.289 136.678)" fill="#3bbedb" opacity="0.3"/>
      <path id="Path_271" data-name="Path 271" d="M136.943,22.421,110.077,47.24l29.665,20.776" transform="translate(2.986)" fill="none" stroke="#3f3d56" stroke-miterlimit="10" stroke-width="0.489"/>
      <line id="Line_22" data-name="Line 22" x1="39.32" y2="30.312" transform="translate(33.163 47.24)" fill="none" stroke="#3f3d56" stroke-miterlimit="10" stroke-width="0.489"/>
      <path id="Path_272" data-name="Path 272" d="M19.754,138.029,32.627,92.265l48.416,44.412" transform="translate(0.536)" fill="none" stroke="#3f3d56" stroke-miterlimit="10" stroke-width="0.489"/>
      <line id="Line_23" data-name="Line 23" x2="46.02" transform="translate(183.307 68.016)" fill="none" stroke="#3f3d56" stroke-miterlimit="10" stroke-width="0.489"/>
      <rect id="Rectangle_408" data-name="Rectangle 408" width="47.71" height="14.668" transform="translate(208.668 60.486)" fill="#3bbedb"/>
      <line id="Line_24" data-name="Line 24" x2="30.138" transform="translate(256.44 67.82)" fill="none" stroke="#3f3d56" stroke-miterlimit="10" stroke-width="0.489"/>
      <line id="Line_25" data-name="Line 25" x1="27.932" y1="45.399" transform="translate(180.508 22.421)" fill="none" stroke="#3f3d56" stroke-miterlimit="10" stroke-width="0.489"/>
      <ellipse id="Ellipse_28" data-name="Ellipse 28" cx="220.973" cy="47.917" rx="220.973" ry="47.917" transform="translate(126.055 301.293)" fill="#f2f2f2"/>
      <path id="Path_273" data-name="Path 273" d="M438.346,191.477,416.8,296.587h-4.665l-.513-.776-1.486-2.251,18.66-98.19,2.832-1.155Z" transform="translate(11.125)" fill="#47465a"/>
      <path id="Path_274" data-name="Path 274" d="M431.626,194.215l-20.006,101.6-1.486-2.251,18.66-98.19Z" transform="translate(11.125)" opacity="0.1"/>
      <path id="Path_275" data-name="Path 275" d="M470.211,334.652l-5.54,1.739-1.346.424-1.777-3.893L431.058,197.515l3.17-.692,6.66-1.454Z" transform="translate(11.692)" fill="#47465a"/>
      <path id="Path_276" data-name="Path 276" d="M464.671,336.39l-1.346.424-1.777-3.893L431.058,197.515l3.17-.692Z" transform="translate(11.692)" opacity="0.1"/>
      <path id="Path_277" data-name="Path 277" d="M212.354,191.477,207.467,327.73l-5.6,1.211-.4.087-1.555-2.811,3.11-133.442,2.992-.415Z" transform="translate(5.423)" fill="#47465a"/>
      <path id="Path_278" data-name="Path 278" d="M206.016,192.359l-4.15,136.582-.4.087-1.555-2.811,3.11-133.442Z" transform="translate(5.423)" opacity="0.1"/>
      <path id="Path_279" data-name="Path 279" d="M241.32,375.96l-5.794.973-.649.108-1.777-3.676-28.212-178,.813-.24,4.3-1.274Z" transform="translate(5.558)" fill="#47465a"/>
      <path id="Path_280" data-name="Path 280" d="M235.526,376.933l-.649.108-1.777-3.676-28.212-178,.813-.24Z" transform="translate(5.558)" opacity="0.1"/>
      <path id="Path_281" data-name="Path 281" d="M376.61,201.911l21.571,26.834a7.084,7.084,0,0,0,6.322,2.567l88.549-10.1a6.878,6.878,0,0,0,6.181-6.764V194.557Z" transform="translate(-7.111 -21.463)" fill="#7a799c"/>
      <path id="Path_282" data-name="Path 282" d="M430.464,184.772h6V193.2a2.2,2.2,0,0,1-2.229,2.17h-1.541a2.2,2.2,0,0,1-2.229-2.17v-8.428Z" transform="translate(11.676)" fill="#47465a"/>
      <path id="Path_283" data-name="Path 283" d="M221.757,219l21.571,26.834a7.084,7.084,0,0,0,6.322,2.567L338.2,238.3a6.878,6.878,0,0,0,6.181-6.764V211.643Z" transform="translate(-11.311 -21.463)" fill="#7a799c"/>
      <path id="Path_284" data-name="Path 284" d="M275.61,201.858h6v8.428a2.2,2.2,0,0,1-2.229,2.17h-1.54a2.2,2.2,0,0,1-2.229-2.17v-8.428Z" transform="translate(7.476)" fill="#47465a"/>
      <path id="Path_285" data-name="Path 285" d="M247.218,232.587l263.389-29.87a3.831,3.831,0,0,0,3.366-3.088A3.744,3.744,0,0,0,511.9,195.6l-47.116-23.07a55.814,55.814,0,0,0-30.033-5.387l-234,23.23a4.46,4.46,0,0,0-3.746,2.854,4.277,4.277,0,0,0,1,4.527l27.249,27.219a26.875,26.875,0,0,0,21.958,7.61Z" transform="translate(-11.99 -21.463)" fill="#47465a"/>
      <path id="Path_286" data-name="Path 286" d="M530.762,198.668l-2.817-1.516s-3.042,2.18-5.519,11.363,4.631.1,4.631.1l3.11-6.272Z" transform="translate(-3.17 -21.463)" fill="#47465a"/>
      <path id="Path_287" data-name="Path 287" d="M504.209,282.8s-2.888,13.193-4.221,16.869c-.653,1.8-3.808,3.445-7.3,4.7a49.974,49.974,0,0,1-9.579,2.433c-3.776.433-52.2-6.921-75.75-11.9-15.863-3.35-17.914-7.193-17.563-9.343a3.093,3.093,0,0,1,.9-1.687s23.325-15.356,31.544-22.709,24.436-1.514,42.207,1.514S504.209,282.8,504.209,282.8Z" transform="translate(-6.754 -21.463)" fill="#47465a"/>
      <path id="Path_288" data-name="Path 288" d="M528.929,197.152s10.885,6.921-25.768,21.2c0,0-19.922,10.936-17.329,55.986a12.126,12.126,0,0,0,1.845,5.722c3.782,6.056,11.885,21.385-1.621,23.289V306.8s24.436-11.9,27.1-22.06,11.551-66.613,15.994-71.8S536.482,199.531,528.929,197.152Z" transform="translate(-4.154 -21.463)" fill="#47465a"/>
      <path id="Path_289" data-name="Path 289" d="M492.683,304.371A49.971,49.971,0,0,1,483.1,306.8c-3.776.433-52.2-6.921-75.75-11.9-15.863-3.35-17.914-7.193-17.563-9.343,10.427,3.471,44.286,14.488,56.437,15.4,14.439,1.081,42.025,4.088,44.115,2.044C491.148,302.221,491.97,303.052,492.683,304.371Z" transform="translate(-6.754 -21.463)" opacity="0.1"/>
      <path id="Path_290" data-name="Path 290" d="M366.445,394.4l21.1-93.864s3.776-9.949,12.44-9.516l8,3.893s-13.329-3.028-16.216,6.921S370.444,394.4,370.444,394.4Z" transform="translate(-7.387 -21.463)" fill="#47465a"/>
      <path id="Path_291" data-name="Path 291" d="M398.888,330.11l8.441-57.313h3.777l-8.664,57.313Z" transform="translate(10.82)" fill="#47465a"/>
      <path id="Path_292" data-name="Path 292" d="M494.694,407.588l-8-89.538s0-7.57,4-11.246S507.6,292.639,507.6,292.639s3.308-.758,5.974,6.6,21.1,80.887,21.1,80.887l-3.554,1.514-22.882-84.78-15.772,14.49s-3.11,5.407-1.555,10.381,7.331,85.861,7.331,85.861Z" transform="translate(-4.125 -21.463)" fill="#47465a"/>
      <path id="Path_293" data-name="Path 293" d="M453.605,283.178,473.6,288.8l4.443-4.109-11.551-1.514Z" transform="translate(12.304)" fill="#47465a"/>
      <path id="Path_294" data-name="Path 294" d="M297.434,146.783l3.242,47.342,70.863-6.7-2.82-46.279a4.611,4.611,0,0,0-1.642-3.243,4.866,4.866,0,0,0-3.531-1.12L301.8,141.835a4.7,4.7,0,0,0-4.369,4.948Z" transform="translate(-9.259 -21.463)" fill="#7a799c"/>
      <path id="Path_295" data-name="Path 295" d="M378.336,179.582l-70.641,7.5-2.666.283L284.37,174.392V171.58l70.2-6.155Z" transform="translate(7.713)" fill="#7a799c"/>
      <path id="Path_296" data-name="Path 296" d="M307.694,187.085l-2.666.283L284.37,174.392v-2.518Z" transform="translate(7.713)" opacity="0.1"/>
      <path id="Path_297" data-name="Path 297" d="M285.235,124.864l2.444,42.174,62.2-5.623-2.222-41.093Z" transform="translate(7.737)" fill="#9493b6"/>
      <path id="Path_298" data-name="Path 298" d="M321.353,178.717l7.553,4.975,22.881-2.163-7.775-4.758Z" transform="translate(8.717)" opacity="0.1"/>
      <path id="Path_299" data-name="Path 299" d="M291.29,172.661l9.552,6.921,61.089-5.623-10.885-6.921Z" transform="translate(7.901)" fill="#9493b6"/>
      <rect id="Rectangle_409" data-name="Rectangle 409" width="45.095" height="43.904" transform="translate(407.596 108.752)" fill="#ff6584"/>
      <rect id="Rectangle_410" data-name="Rectangle 410" width="45.095" height="43.904" transform="translate(407.596 108.752)" opacity="0.1"/>
      <path id="Path_300" data-name="Path 300" d="M428.845,150.533s6.361,16.774,0,19.871,22.8,0,22.8,0l8.217-6.451s-18.554-5.161-15.9-17.032S428.845,150.533,428.845,150.533Z" transform="translate(-5.719 -21.463)" fill="#fbbebe"/>
      <path id="Path_301" data-name="Path 301" d="M428.845,150.533s6.361,16.774,0,19.871,22.8,0,22.8,0l8.217-6.451s-18.554-5.161-15.9-17.032S428.845,150.533,428.845,150.533Z" transform="translate(-5.719 -21.463)" opacity="0.1"/>
      <path id="Path_302" data-name="Path 302" d="M377.984,318.787s23.855,32.773,19.879,41.806-1.855,14.709-9.807,17.806-10.072,8.774-3.181,8.516,15.9-2.064,17.229-4.387,4.506-13.419,9.012-14.967,12.988-7.484,6.891-14.71-21.457-33.84-20.271-36.533S377.984,318.787,377.984,318.787Z" transform="translate(-7.073 -21.463)" fill="#fbbebe"/>
      <path id="Path_303" data-name="Path 303" d="M428.235,254.014s-49.3,3.1-62.023,14.709,11.132,54.967,13.783,55.483,23.325-1.548,22.53-7.226-14.843-28.9-14.843-28.9,18.289-6.451,28.361-8,21.2-8.774,21.2-8.774Z" transform="translate(-7.493 -21.463)" fill="#9493b6"/>
      <path id="Path_304" data-name="Path 304" d="M404.564,246.789s.8,28.645,8.217,29.677,0-21.935,0-21.935l-.265-8.774Z" transform="translate(-6.353 -21.463)" fill="#fbbebe"/>
      <path id="Path_305" data-name="Path 305" d="M427.15,171.694s-13.783-3.871-16.434,6.451-3.446,45.934-3.446,45.934L402.5,252.466s8.747-2.581,10.6-1.29L424.234,237.5Z" transform="translate(-6.409 -21.463)" fill="#3bbedb"/>
      <path id="Path_306" data-name="Path 306" d="M427.15,171.694s-13.783-3.871-16.434,6.451-3.446,45.934-3.446,45.934L402.5,252.466s8.747-2.581,10.6-1.29L424.234,237.5Z" transform="translate(-6.409 -21.463)" opacity="0.1"/>
      <path id="Path_307" data-name="Path 307" d="M445.126,324.282s9.263,17.73,14.829,17.472,10.867-3.613,13.518,6.968-.53,7.742,2.651,13.935,3.711,17.032-2.386,19.612-11.663,2.839-11.928,0,5.3-2.839-1.06-12.9S440.871,340.98,435.3,339.173,445.126,324.282,445.126,324.282Z" transform="translate(-5.552 -21.463)" fill="#fbbebe"/>
      <path id="Path_308" data-name="Path 308" d="M470.267,243.434s19.084,30.967,6.626,40-49.566,26.322-49.566,26.322,19.879,13.161,20.94,17.548-9.542,16.258-13.253,16.516-14.578-11.871-26.241-14.967-18.819-25.29-6.1-33.548,24.65-21.935,24.65-21.935L423.619,253.5Z" transform="translate(-6.586 -21.463)" fill="#9493b6"/>
      <path id="Path_309" data-name="Path 309" d="M453.34,140.164c0,10.974-11.546,20.046-22.818,20.046s-20.41-8.9-20.41-19.871,9.138-19.871,20.41-19.871S453.34,129.189,453.34,140.164Z" transform="translate(-6.202 -21.463)" fill="#fbbebe"/>
      <path id="Path_310" data-name="Path 310" d="M435.681,168.855s18.289-7.742,18.289-8.774,10.6,2.323,12.988,4.387,3.711,1.806,5.3,5.935-7.952,42.58-7.952,42.58,5.3,29.677,8.217,32.515-23.59,6.968-23.59,6.968-17.494,3.1-20.41,4.387-8.217,3.1-7.157,0,5.566-5.419-2.12-9.29c0,0,2.651-12.645,0-18.322s-14.843-26.322-5.036-41.289,14.313-20.387,14.313-20.387S431.97,170.4,435.681,168.855Z" transform="translate(-6.193 -21.463)" fill="#3bbedb"/>
      <path id="Path_311" data-name="Path 311" d="M441.871,239.3s-20.674,8.928-26.9,9.754-25.048,5.471-14.711,9.6,25.976-2.064,25.976-2.064l22-9.032Z" transform="translate(-6.552 -21.463)" fill="#fbbebe"/>
      <path id="Path_312" data-name="Path 312" d="M463.164,168.063s7.634-3.6,9.755,9.049,9.542,52.644,0,58.579-31.542,15.484-31.542,15.484-12.988-8.516-6.892-11.613,20.675-11.871,22.8-14.967,4.263-37.662.552-43.34S463.164,168.063,463.164,168.063Z" transform="translate(-5.585 -21.463)" opacity="0.1"/>
      <path id="Path_313" data-name="Path 313" d="M462.575,164.984s10.6-.516,12.723,12.129,9.542,52.644,0,58.579-31.542,15.484-31.542,15.484-12.988-8.516-6.892-11.613,20.675-11.871,22.8-14.967-1.59-35.354-5.3-41.032S462.575,164.984,462.575,164.984Z" transform="translate(-5.521 -21.463)" fill="#3bbedb"/>
      <path id="Path_314" data-name="Path 314" d="M425.706,106.89c-3.254.431-6.744,1.59-8.382,4.362a36.251,36.251,0,0,0-1.677,4.392c-1.7,3.986-5.84,6.367-8.826,9.558-3.892,4.159-5.825,10.427-3.529,15.591a63.445,63.445,0,0,0,3.427,5.613c3.054,5.3,3.217,11.669,3.3,17.747l.171,11.951a16.74,16.74,0,0,1-.517,5.427,5.87,5.87,0,0,1-3.612,3.92,9.494,9.494,0,0,0,10.9-3.624,9.17,9.17,0,0,1-2.924,8.263,18.907,18.907,0,0,0,11.5-8.724,33.161,33.161,0,0,0,4.291-13.85,17.694,17.694,0,0,0-.448-7.64,23.7,23.7,0,0,0-2.57-4.807c-2.494-3.987-4.739-8.227-5.543-12.829s0-9.651,3.072-13.237a12.422,12.422,0,0,1,9.7-4.33,10.839,10.839,0,0,1,9,5.366c.709,1.3,1.718,3.061,3.155,2.6a7.888,7.888,0,0,0,.778-.372c1.6-.71,3.422.691,4.129,2.26,2.228,4.951-1.877,10.357-2.3,15.747-.395,5.014,2.477,9.743,5.909,13.5A45.772,45.772,0,0,0,476.993,177.1a6.279,6.279,0,0,1-3.231-1.954,43.54,43.54,0,0,0,10.424-.851,71.363,71.363,0,0,1-10.6-8.885,23.245,23.245,0,0,1-6.251-11.988c-.9-6.038,1.409-12.577-1.232-18.111-2.415-5.059-8.4-7.886-10.59-13.042-2.221-5.237-3.662-9.787-9.543-12.067C439.551,107.715,432.642,105.971,425.706,106.89Z" transform="translate(-6.414 -21.463)" fill="#ff6584"/>
    </g>
  </g>
</svg>
